<svg id="Layer_1" data-name="Layer 1" xmlns="http://www.w3.org/2000/svg" width="215.49" height="83.23" viewBox="0 0 215.49 83.23">
  <g>
    <path d="M64.75,19.58q-14,9.62-27.93,19.26c-.61.42-.87.49-1.11-.36q-3-11-6.08-21.93c0-.12-.06-.21.12-.3.51.1.52.62.68,1A32.8,32.8,0,0,0,32.93,22c3.14,4.84,7.4,6.58,13.22,5.39,5.36-1.09,10.16-3.54,14.91-6.13,1.15-.63,2.29-1.29,3.44-1.94C64.76,19.23,64.8,19.36,64.75,19.58Z" style="fill: #1c1c1c"/>
    <path d="M40.7,67C39.74,50,31,39.72,14.26,35.88c8.81-1.11,16.2,1.3,21.92,7.9C42.11,50.6,43.28,58.5,40.7,67Z" style="fill: #1c1c1c"/>
    <path d="M50.17,42.28c1.3-1.62,2.33-3.12,4.48-2.2a5.38,5.38,0,0,1-1.4,1.55,1,1,0,0,0-.16,1.53c.57.81,1,1.69,1.57,2.54.16.25.32.52.15.77s-.51,0-.74,0a2,2,0,0,1-2.29-1.55c-.13-.35-.24-1-.75-.88a1.18,1.18,0,0,0-.85,1.3c.18,1.14-.54,1.08-1.31,1.07-.59,0-.76-.27-.75-.8,0-1.64,0-3.27,0-4.9,0-.87.49-.84,1.08-.84s1.06,0,1,.8C50.13,41.06,50.17,41.46,50.17,42.28Z" style="fill: #1c1c1c"/>
    <path d="M171.73,44.47a9.73,9.73,0,0,0,0,1.08c.07.71-.28.87-.93.87s-1-.1-.94-.85a13.64,13.64,0,0,0,0-1.43c0-.47.09-1.08-.62-1.06s-.6.63-.62,1.1a9.55,9.55,0,0,0,0,1.31c.07.77-.32.93-1,.93s-.92-.27-.88-.92,0-1.2,0-1.79c0-.36-.14-.64-.54-.65a.6.6,0,0,0-.63.6,19.65,19.65,0,0,0,0,2c0,.74-.43.72-.94.71s-1,.06-1-.69c0-1,0-1.91,0-2.87,0-1.16.34-1.5,1.4-1.12.52.19.87,0,1.28,0a30.43,30.43,0,0,0,4.27,0c.67-.07,1,.63,1.07,1.25a13.3,13.3,0,0,1,.08,1.55Z" style="fill: #1d1d1d"/>
    <path d="M117.3,43.09c0,.76,0,1.53,0,2.28s-.17,1.06-1,1.06-1.07-.29-1.1-1.11c0-.53.58-1.45-.64-1.56s-1.53,0-1.48,1.37c0,.93-.14,1.41-1.22,1.3-.6-.07-.84-.23-.83-.85,0-1.64,0-3.28,0-4.92,0-.79.4-.79,1-.79s1.1,0,1.08.84c0,.59-.33,1.42.85,1.44.92,0,1.49-.13,1.31-1.21-.14-.86.27-1.08,1.09-1.09s1,.37,1,1.09S117.3,42.38,117.3,43.09Z" style="fill: #1d1d1d"/>
    <path d="M184,40a13.89,13.89,0,0,0,1.63,0c.71-.1,1,.25,1.15.88.31,1.1.69,2.19,1.15,3.61.44-1.45.79-2.57,1.14-3.69a1.52,1.52,0,0,1,2-.87c.32.15.23.37.15.59-.67,1.79-1.35,3.58-2,5.38-.27.77-.89.51-1.4.54s-1,.09-1.25-.6c-.5-1.47-1.09-2.92-1.64-4.37A3.14,3.14,0,0,0,184,40Z" style="fill: #1d1d1d"/>
    <path d="M150.34,42c.48-.15.8-.28,1.14-.35a1.51,1.51,0,0,1,2,1.55c.05.72,0,1.44,0,2.16s-.07,1.11-.95,1.1-1-.36-1-1.09a11.43,11.43,0,0,0,0-1.31c0-.44.05-1-.61-1s-.63.52-.66,1a13.53,13.53,0,0,0,0,1.56c.06.76-.39.81-1,.81s-.89-.12-.87-.79c0-1.68,0-3.36,0-5,0-.75.42-.72.93-.72s1,0,.92.72C150.31,41,150.34,41.44,150.34,42Z" style="fill: #1d1d1d"/>
    <path d="M132.42,40v3.17c.91-1.29,1.86-1.86,3.19-1.37,0,.44-.41.7-.62.89-.66.56-.49,1.09-.16,1.66s.78,1.25,1.18,1.88l.14.17-.22,0c-1.06,0-2.22.23-2.56-1.25-.06-.22-.21-.47-.52-.34a.68.68,0,0,0-.43.66c0,.53,0,1-.72,1-1.15.19-1,0-1.42-1-.6-1.6.23-3.08,0-4.62-.09-.6.18-1.09,1-1C131.64,39.91,132.06,39.75,132.42,40Z" style="fill: #1e1e1e"/>
    <path d="M64.53,46c0-.76,0-1.51,0-2.26a.55.55,0,0,0-.57-.63.58.58,0,0,0-.65.57,17,17,0,0,0,0,2c0,.72-.39.75-.92.74s-1,0-.94-.73a22.78,22.78,0,0,0,0-3c-.11-1.17.68-1.26,1.33-1a1.71,1.71,0,0,0,1.42,0,1.7,1.7,0,0,1,2.27.92c.11,1.28,1,2.57-.07,3.83l.06-.06C65.71,46.63,65,47,64.53,46Z" style="fill: #1e1e1e"/>
    <path d="M136.79,45.87c-.78-.89-1.19-1.91-.46-3a3.27,3.27,0,0,1,4-1.09,6.47,6.47,0,0,1,.62.35c.3.39.94.38,1.05,1,.22,1.3-.11,1.61-1.81,1.57.43.08,1.05-.22,1.26.51a1.86,1.86,0,0,1-1.54,1.1,18,18,0,0,1-1.95.29C137.48,46.57,136.92,46.55,136.79,45.87Z" style="fill: #1d1d1d"/>
    <path d="M60.4,44v.71c0,1.71,0,1.71-1.78,1.32-.33-.07-.51.19-.76.28a1.64,1.64,0,0,1-2.44-1.61c0-.68,0-1.36,0-2s.14-1.07,1-1.06.92.38.88,1q0,.72,0,1.44c0,.4,0,.87.57.88s.68-.46.7-.91a15.69,15.69,0,0,0,0-1.68c0-.71.38-.76.91-.74s1,0,1,.69C60.38,42.91,60.4,43.47,60.4,44Z" style="fill: #1f1f1f"/>
    <path d="M142.51,41.65c1.05-.1,2.05.38,3.18,0,.95-.34,1.68.37,1.77,1.41s0,1.83,0,2.74-.57.6-1,.62-.89,0-.87-.65,0-1.35,0-2c0-.36-.17-.62-.55-.65a.58.58,0,0,0-.67.54,7.64,7.64,0,0,0-.12,1.06c-.06,1.7-.05,1.7-1.72,1.76C142.25,44.84,141.56,43.26,142.51,41.65Z" style="fill: #1d1d1d"/>
    <path d="M158,44.5a4.7,4.7,0,0,0-.84,0c-.26.05-.76-.21-.71.32a.64.64,0,0,0,.9.52,2.82,2.82,0,0,1,1.61-.29c.23,0,.54,0,.59.29s-.16.35-.28.49a3.82,3.82,0,0,1-3.63.39,2.52,2.52,0,0,1-1.15-2.88,2.36,2.36,0,0,1,2.39-1.78c1.5-.08,2.45.42,2.84,1.5s.18,1.42-1,1.44H158Z" style="fill: #1e1e1e"/>
    <path d="M85.91,44.5a3.27,3.27,0,0,0-.83,0c-.27.07-.87-.3-.75.37a.66.66,0,0,0,1,.46A2.74,2.74,0,0,1,87,45.07c.55.1.54.33.21.71a3.78,3.78,0,0,1-3.72.44,2.53,2.53,0,0,1-1.16-2.78,2.39,2.39,0,0,1,2.57-1.87c1.47,0,2.3.44,2.68,1.53s.26,1.4-1,1.41h-.72Z" style="fill: #1d1d1d"/>
    <path d="M180.87,45.19a3.23,3.23,0,0,1-3.81,1.14,2.39,2.39,0,0,1-1.45-2.72c.16-1.3,1.2-2.07,2.76-2s2.56.84,2.68,2.15c0,.57-.15.81-.73.79s-1.27,0-1.91,0c-.26,0-.58-.11-.77.14-.07.07,0,.31.07.41a.7.7,0,0,0,.94.26A2.9,2.9,0,0,1,180.87,45.19Z" style="fill: #1e1e1e"/>
    <path d="M95.24,46.5c-1.69,0-2.6-.76-2.7-2.23a2.26,2.26,0,0,1,2.12-2.66c1.76-.22,3,.42,3.22,1.74.16.76,0,1.25-.91,1.16a9.32,9.32,0,0,0-1.67,0c-.28,0-.87-.28-.77.37a.65.65,0,0,0,1,.45,2.61,2.61,0,0,1,1.62-.27c.22,0,.54,0,.57.3s-.17.35-.31.48A2.84,2.84,0,0,1,95.24,46.5Z" style="fill: #1e1e1e"/>
    <path d="M121,41.57c1.7,0,2.7,1,2.67,2.52A2.72,2.72,0,1,1,121,41.57Z" style="fill: #1d1d1d"/>
    <path d="M106.85,44.4c0,.36,0,.72,0,1.08.05.62-.08,1-.82.94s-1.09-.09-1-.9c0-.55,0-1.11,0-1.67s-.13-.72-.57-.77-.71.3-.75.73a15.58,15.58,0,0,0,0,1.67c0,.63-.12,1-.85.94s-1-.27-1-1c0-.88,0-1.75,0-2.63,0-1.13.53-1.49,1.53-1,.25.12.34.26.68.12,1.92-.79,2.74-.21,2.77,1.88Z" style="fill: #1d1d1d"/>
    <path d="M71.48,46.21c-1.34.59-2.65.8-3.89-.24-.35-.24-.61-.51-.39-1s.49-.45,1.49-.26a1.18,1.18,0,0,1-1.29-1.15,1.35,1.35,0,0,1,1.09-1.84c1.19-.33,2.45-.45,3.43.63,0,.69,0,.69-.77.86a1.35,1.35,0,0,1,1.56,1.31A1.44,1.44,0,0,1,71.48,46.21Z" style="fill: #1d1d1d"/>
    <path d="M129.82,45a3.15,3.15,0,0,1-4,1.27,2.24,2.24,0,0,1-1.43-2.49,2.15,2.15,0,0,1,1.79-2.11,3.72,3.72,0,0,1,3.07.48c.32.3.9.47.69,1.09s-.77.58-1.28.64-.93-.27-1.41.15c.4.35.76,0,1.11,0C129,44.06,129.81,43.93,129.82,45Z" style="fill: #1e1e1e"/>
    <path d="M72.75,42.83a3.12,3.12,0,0,1,2-2.73,1.63,1.63,0,0,1,.44,0,2.45,2.45,0,0,0,1,2.07c.16.15.09.58-.26.81a1.21,1.21,0,0,0,0,2.21c.31.2.26.46.27.72a.69.69,0,0,1-.49.73,1.82,1.82,0,0,1-2.37-1.17C72.52,44.77,72.78,43.76,72.75,42.83Z" style="fill: #1d1d1d"/>
    <path d="M79.53,44.15c.2-.6.4-1.2.58-1.81.11-.36.23-.7.7-.67s.87-.18,1.14.14-.12.66-.25,1c-.36.93-.79,1.83-1.14,2.77a1.13,1.13,0,0,1-1.22.87,1,1,0,0,1-1.12-.82c-.37-1-.83-1.91-1.18-2.88-.11-.31-.7-.86.06-1,.51-.11,1.32-.43,1.59.52.18.64.4,1.27.6,1.91Z" style="fill: #1e1e1e"/>
    <path d="M129.82,45a1.43,1.43,0,0,0-2.1,0,.79.79,0,0,1-1.25-.12,1.34,1.34,0,0,1-.11-1.57.87.87,0,0,1,1.22-.4c.32.14.53.51,1,.41s.79.07,1-.24-.21-.62-.32-.94c.67.08,1.11-.06.92-.89-.32-1.37-.12-1.63,1.23-1.55.36,0,.81-.21,1.06.26-1.84-.28-1.88-.25-1.88,1.56,0,1.22.07,2.46,0,3.67-.08,1,.3,1.3,1.18,1.25-.77.75-1.62-.1-2.4.19C129.13,46,130.61,45.87,129.82,45Z" style="fill: #f8f8f8"/>
    <path d="M88.58,44.09v-.6c0-1.8,0-1.79,1.82-1.66.28,0,.58-.2.87-.22s.82-.12.93.31-.16,1-.45,1c-1.71.19-1.25,1.48-1.28,2.45,0,.75-.18,1.08-1,1-.66,0-.94-.23-.89-.91,0-.48,0-1,0-1.43Z" style="fill: #212121"/>
    <path d="M100.73,41.71c0,1.3,0,2.61,0,3.92,0,.65-.28.81-.86.79s-1,0-1-.77c0-1.3,0-2.61,0-3.91A1.19,1.19,0,0,1,100.73,41.71Z" style="fill: #232323"/>
    <path d="M162.51,44.05c0,.48,0,1,0,1.44.07.78-.32.92-1,.93s-.83-.39-.81-1c0-1,0-1.92,0-2.88,0-.65.16-.92.87-.93s1,.25,1,1c0,.47,0,1,0,1.43Z" style="fill: #1d1d1d"/>
    <path d="M72.75,42.83c1.34.61.49,1.76.66,2.66-.66.2-1.06,1.1-1.93.72a1.6,1.6,0,0,0,.68-1.76c-.23-.77-.92-.89-1.58-1.07-.49-.13-1.48,0-1.33-.54s.9.12,1.37.06,1.17.38,1.3-.52Z" style="fill: #f5f5f5"/>
    <path d="M142.51,41.65c0,1.6,0,3.19,0,4.78-.51-.24.07-1.49-1.07-1.15a2.39,2.39,0,0,0-2.18,0,.76.76,0,0,1-1-.19.45.45,0,0,1-.1-.42c.19-.36.56-.16.86-.2a3.85,3.85,0,0,1,.59,0c2.28,0,2.46-.32,1.31-2.33A1.92,1.92,0,0,0,142.51,41.65Z" style="fill: #f2f2f2"/>
    <path d="M67.4,43.59a3.76,3.76,0,0,0,2.33,1c.3,0,.88,0,.7.56s-.69.42-1,.17A1.89,1.89,0,0,0,68.09,45c-.88,0-.76.44-.5,1a1.82,1.82,0,0,0-1.21.47c0-1.28,0-2.55.07-3.83.1.29.19.59.31.88S67.11,44,67.4,43.59Z" style="fill: #f4f4f4"/>
    <path d="M182.83,44.57c.76-.13,1,.14,1,.88s-.32,1-1.05,1-1-.33-1-1S182.24,44.44,182.83,44.57Z" style="fill: #262626"/>
    <path d="M192.2,46.38c-.79.14-1-.15-1.06-.89,0-.89.4-.94,1.09-1s.92.31.93,1S192.85,46.54,192.2,46.38Z" style="fill: #252525"/>
    <path d="M98.87,41.08c0-.61-.2-1.25.89-1.25s1,.57,1,1.28A1.4,1.4,0,0,1,98.87,41.08Z" style="fill: #2a2a2a"/>
    <path d="M161.62,41.14c-.41,0-.88.12-.92-.57s.46-.67.93-.68.89,0,.88.62S162.09,41.18,161.62,41.14Z" style="fill: #202020"/>
    <path d="M136.79,45.87c.39.29.92.35,1.2.8-.79.74-1.37-.19-2.06-.26a.3.3,0,0,1,.08-.2Z" style="fill: #f2f2f2"/>
    <path d="M64.75,19.58l-.25-.25a4.51,4.51,0,0,1,2-1.08A4.84,4.84,0,0,1,64.75,19.58Z" style="fill: #5e5e5e"/>
    <path d="M98.87,41.08l1.86,0v.6l-1.86,0Z" style="fill: #f0f0f0"/>
    <path d="M64.53,46c.49.8,1.27.29,1.91.41C65.33,47.19,64.81,47.08,64.53,46Z" style="fill: #f4f4f4"/>
    <path d="M73.32,46.78a.49.49,0,0,1-.67.32.23.23,0,0,1-.16-.37.53.53,0,0,1,.67-.33C73.35,46.45,73.38,46.6,73.32,46.78Z" style="fill: #f5f5f5"/>
    <path d="M138.92,43.62c-.26-.09-.73.18-.76-.28s.35-.7.8-.68a.64.64,0,0,1,.7.64C139.64,43.8,139.18,43.53,138.92,43.62Z" style="fill: #e6e6e6"/>
    <path d="M157.13,43.62c-.27-.08-.74.17-.76-.29s.35-.68.79-.68a.64.64,0,0,1,.7.64C157.84,43.76,157.4,43.55,157.13,43.62Z" style="fill: #dedede"/>
    <path d="M85,43.62c-.27-.09-.74.18-.75-.3a.7.7,0,0,1,.81-.67c.39,0,.73.26.69.66S85.29,43.54,85,43.62Z" style="fill: #e3e3e3"/>
    <path d="M178.41,43.64c-.32-.11-.79.15-.82-.3s.37-.68.79-.69a.65.65,0,0,1,.71.65C179.08,43.82,178.58,43.46,178.41,43.64Z" style="fill: #e4e4e4"/>
    <path d="M95.22,43.63c-.26-.1-.74.19-.74-.33a.7.7,0,0,1,.74-.65.65.65,0,0,1,.77.58C96,43.85,95.49,43.5,95.22,43.63Z" style="fill: #e3e3e3"/>
    <path d="M121.87,44c0,.57-.12,1.18-.82,1.24s-.9-.52-.92-1.11.11-1.18.81-1.24S121.81,43.39,121.87,44Z" style="fill: #f2f2f2"/>
  </g>
</svg>
