<?xml version="1.0" encoding="UTF-8"?>
<svg width="100px" height="100px" viewBox="0 0 100 100" version="1.1" xmlns="http://www.w3.org/2000/svg" xmlns:xlink="http://www.w3.org/1999/xlink">
    <title>favicon</title>
    <g id="favicon" stroke="none" stroke-width="1" fill="none" fill-rule="evenodd">
        <g id="dot" transform="translate(9.000000, 9.000000)" fill="#8A86BB" fill-rule="nonzero">
            <path d="M45.045,40.887 C45.045,42.525 43.848,43.785 42.21,43.785 C40.572,43.785 39.375,42.525 39.375,40.95 C39.375,39.375 40.572,38.178 42.084,38.115 C43.722,38.052 44.982,39.312 45.045,40.887 Z" id="Path"></path>
            <path d="M15.309,16.443 C15.183,17.388 14.679,18.018 13.671,17.955 C12.663,17.892 12.159,17.262 12.222,16.317 C12.285,15.435 12.852,14.868 13.734,14.868 C14.679,14.868 15.183,15.498 15.309,16.443 Z" id="Path"></path>
            <path d="M39.69,78.75 C39.501,79.002 39.375,79.254 39.123,79.443 C38.619,79.947 37.989,80.199 37.296,79.821 C36.603,79.443 36.351,78.876 36.477,78.12 C36.603,77.364 37.17,76.923 37.926,76.923 C38.682,76.923 39.249,77.301 39.438,78.057 C39.501,78.246 39.627,78.498 39.69,78.75 L39.69,78.75 Z" id="Path"></path>
            <path d="M23.184,75.096 C22.239,74.97 21.672,74.466 21.735,73.458 C21.798,72.513 22.365,72.072 23.247,72.009 C24.318,72.009 24.759,72.702 24.759,73.584 C24.759,74.529 24.192,75.033 23.184,75.096 Z" id="Path"></path>
            <path d="M56.322,5.355 C56.196,6.237 55.692,6.867 54.81,6.867 C53.865,6.867 53.235,6.3 53.298,5.292 C53.361,4.347 53.928,3.843 54.81,3.843 C55.755,3.78 56.133,4.473 56.322,5.355 Z" id="Path"></path>
            <path d="M4.284,40.698 C5.229,40.761 5.796,41.265 5.859,42.147 C5.922,43.155 5.292,43.722 4.347,43.722 C3.465,43.722 2.898,43.155 2.898,42.21 C2.898,41.328 3.465,40.824 4.284,40.698 Z" id="Path"></path>
            <path d="M73.521,22.05 C72.576,21.924 72.009,21.483 72.009,20.601 C72.009,19.719 72.513,19.089 73.395,19.089 C74.277,19.089 74.844,19.593 74.907,20.475 C74.97,21.42 74.277,21.861 73.521,22.05 Z" id="Path"></path>
            <path d="M76.293,57.96 C75.411,57.834 74.781,57.393 74.781,56.448 C74.781,55.566 75.285,54.936 76.23,54.936 C77.175,54.936 77.742,55.44 77.742,56.385 C77.742,57.33 77.112,57.771 76.293,57.96 Z" id="Path"></path>
            <path d="M12.789,61.803 C12.663,62.685 12.096,63.315 11.214,63.252 C10.395,63.189 9.765,62.622 9.828,61.677 C9.891,60.795 10.521,60.228 11.403,60.291 C12.222,60.291 12.726,60.921 12.789,61.803 Z" id="Path"></path>
            <path d="M28.602,75.096 C28.413,75.915 27.972,76.545 27.027,76.545 C26.082,76.545 25.578,75.915 25.578,75.033 C25.578,74.151 26.208,73.584 27.09,73.647 C28.035,73.584 28.476,74.214 28.602,75.096 Z" id="Path"></path>
            <path d="M41.328,3.969 C41.265,4.788 40.635,5.229 39.753,5.103 C38.871,5.04 38.43,4.473 38.43,3.654 C38.43,2.709 39.06,2.205 39.942,2.205 C40.824,2.331 41.328,2.898 41.328,3.969 Z" id="Path"></path>
            <path d="M34.083,76.545 C35.028,76.608 35.595,77.049 35.595,77.994 C35.658,78.939 35.091,79.506 34.209,79.506 C33.327,79.569 32.697,79.065 32.697,78.12 C32.697,77.112 33.201,76.671 34.083,76.545 Z" id="Path"></path>
            <path d="M75.474,58.212 C76.356,58.275 76.86,58.716 76.923,59.598 C76.923,60.48 76.482,61.047 75.663,61.047 C74.718,61.11 74.151,60.48 74.151,59.598 C74.088,58.779 74.655,58.338 75.474,58.212 Z" id="Path"></path>
            <path d="M59.787,7.497 C59.598,8.442 59.157,8.946 58.212,8.883 C57.33,8.82 56.952,8.253 56.952,7.434 C56.952,6.615 57.519,6.111 58.338,6.048 C59.22,6.048 59.661,6.678 59.787,7.497 Z" id="Path"></path>
            <path d="M76.23,27.972 C75.411,27.783 74.844,27.405 74.907,26.523 C74.97,25.641 75.474,25.2 76.293,25.2 C77.175,25.2 77.679,25.767 77.616,26.586 C77.679,27.405 77.112,27.909 76.23,27.972 Z" id="Path"></path>
            <path d="M64.26,8.379 C65.142,8.442 65.709,8.946 65.709,9.765 C65.709,10.71 65.142,11.277 64.197,11.214 C63.378,11.151 62.874,10.584 62.874,9.765 C62.937,8.883 63.504,8.505 64.26,8.379 Z" id="Path"></path>
            <path d="M16.695,68.292 C16.632,69.048 16.191,69.552 15.309,69.615 C14.427,69.615 13.923,69.111 13.923,68.292 C13.923,67.473 14.427,66.906 15.246,66.906 C16.065,66.906 16.632,67.347 16.695,68.292 Z" id="Path"></path>
            <path d="M19.341,70.434 C19.278,71.316 18.774,71.82 17.892,71.82 C17.01,71.82 16.506,71.253 16.506,70.434 C16.506,69.489 17.01,68.922 17.955,68.985 C18.9,69.048 19.341,69.615 19.341,70.434 Z" id="Path"></path>
            <path d="M6.867,27.09 C6.048,26.901 5.607,26.46 5.607,25.578 C5.67,24.759 6.174,24.318 6.93,24.318 C7.749,24.318 8.316,24.885 8.253,25.704 C8.316,26.586 7.749,27.027 6.867,27.09 Z" id="Path"></path>
            <path d="M39.69,78.75 C39.879,78.624 40.131,78.435 40.32,78.372 C41.202,77.931 41.895,78.183 42.21,79.065 C42.462,79.821 42.21,80.577 41.265,80.703 C40.32,80.892 39.753,80.451 39.69,79.443 C39.69,79.254 39.69,79.002 39.69,78.75 C39.69,78.75 39.69,78.75 39.69,78.75 Z" id="Path"></path>
            <path d="M79.695,46.872 C79.695,47.943 79.191,48.321 78.435,48.384 C77.616,48.447 77.112,47.943 77.112,47.124 C77.112,46.242 77.553,45.738 78.435,45.738 C79.254,45.738 79.695,46.242 79.695,46.872 Z" id="Path"></path>
            <path d="M48.258,4.221 C47.502,4.158 46.998,3.717 46.998,2.961 C46.998,2.142 47.502,1.575 48.384,1.638 C49.203,1.638 49.644,2.205 49.644,2.961 C49.644,3.717 49.14,4.158 48.258,4.221 Z" id="Path"></path>
            <path d="M78.813,40.824 C78.12,40.698 77.553,40.32 77.553,39.501 C77.553,38.745 77.994,38.178 78.813,38.178 C79.632,38.178 80.199,38.682 80.199,39.501 C80.136,40.32 79.632,40.761 78.813,40.824 Z" id="Path"></path>
            <path d="M8.001,50.211 C7.938,51.03 7.623,51.597 6.804,51.66 C5.922,51.723 5.418,51.219 5.418,50.337 C5.418,49.518 5.859,49.077 6.678,49.077 C7.434,49.014 7.875,49.518 8.001,50.211 Z" id="Path"></path>
            <path d="M7.245,54.243 C7.182,55.062 6.804,55.566 5.985,55.566 C5.229,55.566 4.725,55.188 4.662,54.369 C4.599,53.487 5.103,53.046 5.859,53.046 C6.615,52.983 7.119,53.487 7.245,54.243 Z" id="Path"></path>
            <path d="M62.496,75.222 C61.677,75.096 61.173,74.655 61.173,73.899 C61.173,73.143 61.677,72.639 62.496,72.702 C63.252,72.765 63.756,73.206 63.693,74.025 C63.693,74.781 63.189,75.096 62.496,75.222 Z" id="Path"></path>
            <path d="M9.198,55.188 C9.954,55.314 10.458,55.692 10.458,56.511 C10.458,57.33 9.954,57.708 9.135,57.708 C8.379,57.708 8.001,57.204 7.938,56.511 C7.875,55.692 8.442,55.314 9.198,55.188 Z" id="Path"></path>
            <path d="M69.867,69.3 C69.741,70.056 69.363,70.56 68.544,70.56 C67.788,70.56 67.41,70.119 67.347,69.363 C67.347,68.544 67.725,68.04 68.544,68.04 C69.363,68.04 69.741,68.544 69.867,69.3 Z" id="Path"></path>
            <path d="M32.319,7.119 C31.563,6.993 31.122,6.552 31.185,5.733 C31.248,4.977 31.752,4.662 32.445,4.662 C33.201,4.725 33.642,5.166 33.579,5.859 C33.579,6.615 33.075,7.056 32.319,7.119 Z" id="Path"></path>
            <path d="M29.232,7.623 C29.106,8.316 28.791,8.82 28.035,8.82 C27.279,8.82 26.838,8.379 26.775,7.686 C26.712,6.93 27.216,6.489 27.909,6.426 C28.728,6.426 29.106,6.867 29.232,7.623 Z" id="Path"></path>
            <path d="M11.781,22.365 C11.151,22.176 10.647,21.861 10.71,21.042 C10.773,20.286 11.277,19.908 11.97,19.908 C12.663,19.908 13.104,20.412 13.104,21.168 C13.041,21.924 12.537,22.302 11.781,22.365 Z" id="Path"></path>
            <path d="M4.851,45.612 C4.725,46.431 4.221,46.872 3.528,46.809 C2.835,46.746 2.394,46.242 2.457,45.549 C2.52,44.73 3.024,44.352 3.78,44.415 C4.536,44.478 4.788,44.982 4.851,45.612 Z" id="Path"></path>
            <path d="M50.274,6.804 C49.581,6.678 49.14,6.3 49.14,5.544 C49.203,4.788 49.644,4.41 50.4,4.41 C51.156,4.41 51.597,4.914 51.534,5.607 C51.471,6.363 50.967,6.741 50.274,6.804 Z" id="Path"></path>
            <path d="M66.465,68.922 C66.339,69.615 65.961,70.056 65.205,69.993 C64.449,69.93 64.071,69.489 64.071,68.733 C64.134,67.977 64.575,67.599 65.331,67.599 C66.087,67.725 66.465,68.166 66.465,68.922 Z" id="Path"></path>
            <path d="M77.112,43.47 C77.175,42.966 77.553,42.525 78.309,42.525 C79.065,42.588 79.38,43.092 79.38,43.785 C79.38,44.478 78.876,44.856 78.246,44.856 C77.553,44.856 77.049,44.415 77.112,43.47 Z" id="Path"></path>
            <path d="M59.85,72.954 C59.724,73.71 59.283,74.088 58.59,74.025 C57.897,73.962 57.582,73.521 57.645,72.828 C57.708,72.072 58.149,71.694 58.905,71.757 C59.535,71.883 59.85,72.324 59.85,72.954 Z" id="Path"></path>
            <path d="M73.08,66.402 C72.954,67.095 72.576,67.536 71.82,67.473 C71.064,67.41 70.749,66.906 70.812,66.213 C70.875,65.52 71.316,65.205 72.009,65.205 C72.702,65.142 73.08,65.583 73.08,66.402 Z" id="Path"></path>
            <path d="M22.176,11.655 C22.113,12.474 21.672,12.915 20.916,12.852 C20.286,12.852 19.845,12.411 19.845,11.718 C19.782,10.962 20.286,10.521 20.979,10.521 C21.735,10.458 22.113,10.962 22.176,11.655 Z" id="Path"></path>
            <path d="M49.14,79.317 C49.14,80.262 48.699,80.703 48.006,80.703 C47.376,80.703 46.872,80.325 46.872,79.695 C46.809,79.002 47.124,78.498 47.943,78.435 C48.699,78.372 49.014,78.813 49.14,79.317 Z" id="Path"></path>
            <path d="M77.805,30.429 C77.742,31.185 77.364,31.563 76.608,31.563 C75.915,31.563 75.537,31.122 75.6,30.492 C75.6,29.862 75.978,29.421 76.608,29.358 C77.301,29.295 77.742,29.673 77.805,30.429 Z" id="Path"></path>
            <path d="M8.19,30.303 C7.308,30.303 6.867,29.925 6.804,29.169 C6.804,28.413 7.182,27.972 7.938,27.972 C8.631,27.972 9.135,28.287 9.135,29.106 C9.198,29.862 8.694,30.177 8.19,30.303 Z" id="Path"></path>
            <path d="M45.738,80.136 C45.675,80.829 45.36,81.27 44.667,81.27 C43.974,81.27 43.533,80.892 43.533,80.199 C43.533,79.443 43.974,79.002 44.73,79.002 C45.36,79.065 45.675,79.569 45.738,80.136 Z" id="Path"></path>
            <path d="M72.702,61.677 C72.576,62.307 72.261,62.748 71.568,62.748 C70.875,62.748 70.434,62.433 70.434,61.74 C70.434,60.984 70.812,60.543 71.568,60.543 C72.198,60.606 72.576,61.047 72.702,61.677 Z" id="Path"></path>
            <path d="M36.162,2.079 C36.099,2.709 35.784,3.15 35.091,3.15 C34.398,3.15 34.02,2.772 34.02,2.142 C34.02,1.449 34.461,1.071 35.091,1.071 C35.721,1.008 36.099,1.449 36.162,2.079 Z" id="Path"></path>
            <path d="M81.774,39.753 C82.404,39.879 82.845,40.131 82.845,40.824 C82.845,41.391 82.53,41.832 81.9,41.895 C81.207,41.958 80.766,41.58 80.703,40.887 C80.703,40.257 81.144,39.879 81.774,39.753 Z" id="Path"></path>
            <path d="M21.105,73.647 C21.042,74.34 20.664,74.781 20.034,74.781 C19.404,74.781 18.963,74.34 18.963,73.71 C18.963,73.143 19.341,72.765 19.971,72.765 C20.664,72.702 21.042,73.017 21.105,73.647 Z" id="Path"></path>
            <path d="M66.906,72.513 C66.78,73.206 66.402,73.647 65.772,73.647 C65.142,73.584 64.701,73.143 64.764,72.513 C64.827,71.883 65.205,71.442 65.898,71.505 C66.591,71.442 66.843,71.883 66.906,72.513 Z" id="Path"></path>
            <path d="M28.854,77.175 C29.484,77.238 29.925,77.616 29.925,78.246 C29.925,78.813 29.547,79.254 28.98,79.317 C28.287,79.38 27.909,78.939 27.846,78.372 C27.783,77.679 28.224,77.301 28.854,77.175 Z" id="Path"></path>
            <path d="M43.722,4.41 C44.478,4.347 44.793,4.788 44.856,5.292 C44.919,5.985 44.541,6.363 43.848,6.426 C43.281,6.489 42.84,6.111 42.777,5.544 C42.777,4.851 43.218,4.536 43.722,4.41 Z" id="Path"></path>
            <path d="M62.055,71.694 C61.362,71.631 60.921,71.316 60.921,70.623 C60.921,70.056 61.236,69.615 61.866,69.552 C62.559,69.489 62.937,69.804 63.063,70.497 C63.063,71.253 62.622,71.568 62.055,71.694 Z" id="Path"></path>
            <path d="M8.064,21.861 C7.434,21.798 6.993,21.483 6.993,20.79 C6.993,20.16 7.371,19.782 7.938,19.782 C8.631,19.719 9.072,20.16 9.072,20.79 C9.072,21.42 8.694,21.798 8.064,21.861 Z" id="Path"></path>
            <path d="M30.87,3.213 C30.87,4.032 30.429,4.41 29.799,4.41 C29.232,4.473 28.791,4.032 28.728,3.465 C28.665,2.772 29.043,2.394 29.673,2.268 C30.429,2.205 30.681,2.709 30.87,3.213 Z" id="Path"></path>
            <path d="M66.213,13.797 C66.906,13.797 67.284,14.175 67.347,14.742 C67.347,15.372 67.032,15.813 66.276,15.813 C65.646,15.813 65.268,15.435 65.268,14.868 C65.268,14.238 65.646,13.86 66.213,13.797 Z" id="Path"></path>
            <path d="M69.93,19.782 C69.3,19.656 68.859,19.278 68.922,18.585 C68.985,17.955 69.363,17.64 69.93,17.64 C70.623,17.703 70.938,18.081 70.875,18.774 C70.875,19.467 70.434,19.656 69.93,19.782 Z" id="Path"></path>
            <path d="M67.536,64.827 C68.166,64.89 68.607,65.205 68.607,65.898 C68.607,66.465 68.229,66.843 67.599,66.843 C66.906,66.843 66.528,66.465 66.528,65.835 C66.528,65.268 66.906,64.89 67.536,64.827 Z" id="Path"></path>
            <path d="M7.686,31.437 C8.316,31.5 8.694,31.878 8.631,32.508 C8.631,33.075 8.253,33.516 7.623,33.453 C6.93,33.453 6.552,33.012 6.615,32.319 C6.678,31.626 7.119,31.437 7.686,31.437 Z" id="Path"></path>
            <path d="M44.73,76.482 C44.73,77.238 44.352,77.553 43.659,77.553 C43.092,77.553 42.651,77.175 42.651,76.608 C42.651,75.978 42.966,75.537 43.722,75.537 C44.352,75.537 44.73,75.915 44.73,76.482 Z" id="Path"></path>
            <path d="M18.081,10.521 C18.018,10.962 17.766,11.34 17.136,11.34 C16.443,11.34 16.065,11.025 16.065,10.332 C16.065,9.639 16.506,9.324 17.136,9.324 C17.703,9.387 18.081,9.765 18.081,10.521 Z" id="Path"></path>
            <path d="M53.865,75.537 C53.172,75.411 52.731,75.096 52.794,74.466 C52.794,73.836 53.235,73.395 53.928,73.458 C54.495,73.521 54.873,73.899 54.81,74.529 C54.747,75.222 54.306,75.411 53.865,75.537 Z" id="Path"></path>
            <path d="M12.096,65.268 C12.033,65.898 11.718,66.213 11.088,66.276 C10.395,66.276 10.017,65.898 10.017,65.205 C10.08,64.512 10.521,64.197 11.214,64.26 C11.781,64.26 12.096,64.638 12.096,65.268 Z" id="Path"></path>
            <path d="M6.993,38.178 C6.426,38.115 5.985,37.863 5.985,37.233 C5.985,36.603 6.363,36.225 6.93,36.225 C7.56,36.225 7.875,36.54 7.938,37.17 C7.938,37.8 7.623,38.178 6.993,38.178 Z" id="Path"></path>
            <path d="M77.175,50.841 C77.112,51.534 76.86,51.912 76.23,51.975 C75.6,52.038 75.285,51.66 75.222,51.03 C75.159,50.4 75.474,50.022 76.104,50.022 C76.734,50.022 77.049,50.337 77.175,50.841 Z" id="Path"></path>
            <path d="M61.74,10.773 C61.74,11.466 61.362,11.781 60.795,11.781 C60.228,11.781 59.85,11.466 59.85,10.836 C59.85,10.206 60.228,9.891 60.795,9.891 C61.362,9.828 61.677,10.206 61.74,10.773 Z" id="Path"></path>
            <path d="M16.317,63.693 C16.821,63.819 17.199,64.071 17.199,64.638 C17.199,65.268 16.821,65.583 16.191,65.52 C15.624,65.457 15.372,65.079 15.435,64.512 C15.435,64.008 15.813,63.756 16.317,63.693 Z" id="Path"></path>
            <path d="M50.211,74.34 C50.841,74.34 51.219,74.718 51.219,75.285 C51.219,75.852 50.841,76.23 50.211,76.23 C49.644,76.23 49.392,75.852 49.329,75.348 C49.329,74.781 49.581,74.34 50.211,74.34 Z" id="Path"></path>
            <path d="M26.145,4.41 C26.082,4.914 25.83,5.292 25.263,5.292 C24.633,5.292 24.255,4.914 24.318,4.347 C24.318,3.843 24.696,3.465 25.263,3.528 C25.767,3.528 26.082,3.906 26.145,4.41 Z" id="Path"></path>
            <path d="M64.197,6.615 C64.071,7.119 63.819,7.497 63.252,7.497 C62.748,7.497 62.37,7.119 62.37,6.615 C62.37,6.111 62.748,5.733 63.252,5.796 C63.882,5.733 64.134,6.048 64.197,6.615 Z" id="Path"></path>
            <path d="M74.781,16.38 C74.718,16.947 74.466,17.325 73.836,17.325 C73.269,17.325 73.017,16.947 72.954,16.443 C72.954,15.813 73.269,15.498 73.899,15.498 C74.466,15.435 74.718,15.876 74.781,16.38 Z" id="Path"></path>
            <path d="M18.27,16.38 C18.207,16.947 17.829,17.262 17.325,17.199 C16.821,17.199 16.443,16.821 16.506,16.254 C16.569,15.75 16.884,15.372 17.451,15.435 C17.955,15.498 18.27,15.876 18.27,16.38 Z" id="Path"></path>
            <path d="M53.109,80.073 C52.983,80.577 52.731,80.955 52.164,80.892 C51.66,80.829 51.345,80.514 51.345,79.947 C51.408,79.443 51.723,79.191 52.164,79.191 C52.731,79.191 53.046,79.506 53.109,80.073 Z" id="Path"></path>
            <path d="M82.215,34.713 C82.782,34.839 83.223,35.154 83.16,35.721 C83.097,36.225 82.719,36.603 82.215,36.54 C81.711,36.477 81.459,36.099 81.459,35.658 C81.333,35.091 81.774,34.839 82.215,34.713 Z" id="Path"></path>
            <path d="M72.135,13.041 C72.135,13.608 71.82,13.923 71.253,13.986 C70.686,13.986 70.308,13.671 70.308,13.167 C70.308,12.663 70.623,12.285 71.19,12.285 C71.694,12.222 72.072,12.474 72.135,13.041 Z" id="Path"></path>
            <path d="M58.338,5.103 C57.771,5.04 57.519,4.725 57.519,4.221 C57.519,3.591 57.897,3.276 58.464,3.339 C58.968,3.402 59.283,3.78 59.22,4.284 C59.22,4.788 58.905,5.04 58.338,5.103 Z" id="Path"></path>
            <path d="M25.83,10.647 C25.767,11.214 25.452,11.403 24.885,11.403 C24.381,11.403 24.129,11.088 24.129,10.647 C24.129,10.143 24.381,9.765 24.948,9.765 C25.515,9.765 25.83,10.08 25.83,10.647 Z" id="Path"></path>
            <path d="M33.39,73.899 C33.894,74.025 34.209,74.277 34.083,74.844 C34.02,75.285 33.768,75.6 33.264,75.6 C32.697,75.6 32.445,75.285 32.445,74.718 C32.445,74.088 32.886,73.899 33.39,73.899 Z" id="Path"></path>
            <path d="M8.064,46.431 C8.505,46.557 8.82,46.683 8.883,47.25 C8.883,47.817 8.505,48.132 8.064,48.132 C7.56,48.132 7.245,47.817 7.245,47.187 C7.308,46.683 7.623,46.494 8.064,46.431 Z" id="Path"></path>
            <path d="M80.766,56.07 C80.703,56.511 80.451,56.763 79.947,56.763 C79.443,56.763 79.191,56.448 79.191,56.007 C79.191,55.566 79.506,55.251 80.01,55.251 C80.451,55.251 80.766,55.566 80.766,56.07 Z" id="Path"></path>
            <path d="M51.786,7.875 C51.849,7.434 52.164,7.119 52.605,7.182 C53.109,7.182 53.361,7.497 53.361,8.001 C53.298,8.505 53.046,8.82 52.542,8.757 C52.101,8.694 51.849,8.379 51.786,7.875 Z" id="Path"></path>
            <path d="M57.771,77.805 C58.212,77.931 58.59,78.183 58.527,78.624 C58.464,79.128 58.149,79.38 57.645,79.317 C57.204,79.254 57.015,79.002 57.015,78.561 C57.015,78.12 57.33,77.868 57.771,77.805 Z" id="Path"></path>
            <path d="M10.458,52.479 C10.395,52.983 10.08,53.235 9.576,53.172 C9.135,53.109 8.883,52.794 8.883,52.416 C8.883,51.975 9.198,51.66 9.702,51.66 C10.269,51.66 10.458,52.038 10.458,52.479 Z" id="Path"></path>
            <path d="M61.74,76.986 C61.677,77.49 61.425,77.742 60.921,77.742 C60.417,77.742 60.165,77.427 60.165,76.986 C60.165,76.482 60.48,76.23 60.921,76.23 C61.425,76.23 61.677,76.545 61.74,76.986 Z" id="Path"></path>
            <path d="M82.467,51.093 C82.404,51.597 82.152,51.912 81.648,51.912 C81.207,51.912 80.892,51.597 80.892,51.093 C80.892,50.652 81.144,50.4 81.585,50.4 C82.152,50.337 82.341,50.652 82.467,51.093 Z" id="Path"></path>
            <path d="M82.593,45.423 C82.152,45.36 81.837,45.045 81.9,44.604 C81.963,44.163 82.278,43.848 82.782,43.911 C83.286,43.974 83.538,44.226 83.475,44.73 C83.412,45.171 83.097,45.36 82.593,45.423 Z" id="Path"></path>
            <path d="M75.915,34.398 C75.411,34.335 75.096,34.083 75.159,33.579 C75.222,33.138 75.474,32.886 75.915,32.949 C76.419,32.949 76.671,33.264 76.608,33.768 C76.545,34.209 76.293,34.398 75.915,34.398 Z" id="Path"></path>
            <path d="M41.58,6.804 C41.454,7.245 41.202,7.56 40.824,7.56 C40.32,7.56 40.068,7.182 40.131,6.678 C40.194,6.237 40.509,6.048 40.887,6.111 C41.328,6.111 41.517,6.426 41.58,6.804 Z" id="Path"></path>
            <path d="M20.601,6.804 C20.538,7.182 20.412,7.497 19.971,7.56 C19.467,7.623 19.152,7.308 19.152,6.804 C19.152,6.363 19.467,5.985 19.971,6.048 C20.349,6.111 20.538,6.426 20.601,6.804 Z" id="Path"></path>
            <path d="M5.355,59.346 C4.851,59.283 4.599,58.968 4.662,58.527 C4.725,58.086 4.977,57.897 5.355,57.897 C5.796,57.897 5.985,58.149 6.048,58.59 C6.111,59.094 5.796,59.346 5.355,59.346 Z" id="Path"></path>
            <path d="M82.845,31.248 C82.908,31.752 82.593,31.941 82.215,32.067 C81.774,32.193 81.522,31.878 81.396,31.5 C81.27,30.996 81.585,30.681 82.026,30.618 C82.467,30.555 82.719,30.87 82.845,31.248 Z" id="Path"></path>
            <path d="M79.884,25.074 C79.443,25.011 79.191,24.759 79.191,24.381 C79.191,23.94 79.443,23.688 79.884,23.688 C80.262,23.688 80.577,23.94 80.577,24.381 C80.577,24.759 80.262,25.011 79.884,25.074 Z" id="Path"></path>
            <path d="M22.365,68.229 C22.869,68.229 23.121,68.481 23.121,68.859 C23.121,69.237 22.932,69.552 22.491,69.552 C21.987,69.552 21.735,69.363 21.735,68.859 C21.735,68.418 22.05,68.292 22.365,68.229 Z" id="Path"></path>
            <path d="M2.52,33.768 C2.583,34.587 2.394,34.839 1.953,34.965 C1.512,35.028 1.26,34.776 1.197,34.398 C1.134,33.894 1.386,33.579 1.827,33.516 C2.268,33.453 2.52,33.705 2.52,33.768 Z" id="Path"></path>
            <path d="M1.575,50.778 C1.638,50.4 1.89,50.148 2.331,50.148 C2.709,50.148 2.961,50.463 2.961,50.841 C2.898,51.219 2.709,51.534 2.268,51.471 C1.89,51.471 1.575,51.219 1.575,50.778 Z" id="Path"></path>
            <path d="M78.687,20.79 C78.624,21.168 78.372,21.483 77.931,21.483 C77.49,21.483 77.238,21.231 77.238,20.79 C77.238,20.412 77.49,20.097 77.931,20.16 C78.435,20.16 78.624,20.412 78.687,20.79 Z" id="Path"></path>
            <path d="M53.172,1.26 C53.172,1.701 52.92,1.89 52.479,1.953 C52.038,1.953 51.786,1.701 51.786,1.323 C51.786,0.882 51.975,0.63 52.479,0.63 C52.92,0.567 53.109,0.819 53.172,1.26 Z" id="Path"></path>
            <path d="M76.23,36.855 C76.671,36.855 76.86,37.107 76.923,37.485 C76.923,37.863 76.734,38.115 76.419,38.115 C76.041,38.178 75.663,37.989 75.663,37.548 C75.537,37.17 75.789,36.918 76.23,36.855 Z" id="Path"></path>
            <path d="M1.575,30.933 C1.638,30.555 1.827,30.24 2.268,30.24 C2.646,30.24 2.835,30.492 2.835,30.807 C2.835,31.185 2.709,31.437 2.331,31.5 C1.953,31.563 1.701,31.374 1.575,30.933 Z" id="Path"></path>
            <path d="M1.512,41.265 C1.386,41.58 1.197,41.832 0.882,41.832 C0.441,41.769 0.252,41.454 0.315,41.076 C0.378,40.698 0.693,40.572 1.008,40.635 C1.386,40.698 1.512,40.95 1.512,41.265 Z" id="Path"></path>
            <path d="M3.465,26.082 C3.843,26.145 4.032,26.334 4.032,26.712 C3.969,27.153 3.717,27.405 3.276,27.279 C2.961,27.216 2.772,26.901 2.835,26.586 C2.835,26.208 3.087,26.082 3.465,26.082 Z" id="Path"></path>
            <path d="M34.083,82.152 C33.642,82.152 33.39,81.963 33.327,81.648 C33.264,81.333 33.39,81.018 33.768,80.955 C34.209,80.892 34.461,81.081 34.524,81.522 C34.587,81.837 34.272,81.963 34.083,82.152 Z" id="Path"></path>
            <path d="M77.301,63.819 C76.86,63.693 76.608,63.504 76.608,63.126 C76.671,62.811 76.86,62.559 77.238,62.622 C77.616,62.622 77.805,62.874 77.805,63.252 C77.805,63.693 77.427,63.693 77.301,63.819 Z" id="Path"></path>
            <path d="M37.233,81.9 C37.548,81.963 37.8,82.152 37.737,82.53 C37.674,82.782 37.485,82.971 37.17,82.971 C36.792,82.971 36.603,82.719 36.666,82.341 C36.729,82.152 36.918,81.9 37.233,81.9 Z" id="Path"></path>
            <path d="M37.611,75.096 C37.233,75.033 37.044,74.844 37.107,74.466 C37.17,74.088 37.359,73.899 37.737,73.962 C38.115,74.025 38.241,74.214 38.241,74.592 C38.178,74.97 37.926,75.096 37.611,75.096 Z" id="Path"></path>
            <path d="M75.789,41.391 C75.537,41.328 75.285,41.202 75.285,40.887 C75.285,40.509 75.474,40.32 75.852,40.32 C76.167,40.32 76.293,40.509 76.356,40.824 C76.356,41.202 76.167,41.391 75.789,41.391 Z" id="Path"></path>
            <path d="M82.026,27.594 C81.963,27.972 81.837,28.161 81.459,28.161 C81.081,28.161 80.892,27.909 80.955,27.531 C80.955,27.216 81.144,27.09 81.459,27.09 C81.774,27.027 81.963,27.216 82.026,27.594 Z" id="Path"></path>
            <path d="M1.071,37.8 C0.504,37.8 0.315,37.611 0.315,37.359 C0.252,36.981 0.504,36.792 0.882,36.792 C1.197,36.792 1.386,36.981 1.386,37.296 C1.386,37.611 1.134,37.8 1.071,37.8 Z" id="Path"></path>
            <path d="M73.773,27.846 C73.773,28.161 73.584,28.35 73.332,28.35 C72.954,28.35 72.765,28.161 72.765,27.783 C72.765,27.468 72.954,27.279 73.206,27.279 C73.584,27.279 73.773,27.468 73.773,27.846 Z" id="Path"></path>
            <path d="M15.75,60.669 C16.065,60.606 16.191,60.795 16.254,61.11 C16.317,61.425 16.065,61.614 15.813,61.614 C15.687,61.614 15.435,61.425 15.435,61.236 C15.309,60.984 15.435,60.732 15.75,60.669 Z" id="Path"></path>
            <path d="M8.064,16.506 C8.316,16.569 8.568,16.695 8.568,17.01 C8.568,17.388 8.379,17.577 8.001,17.577 C7.686,17.577 7.56,17.325 7.623,17.01 C7.56,16.695 7.812,16.569 8.064,16.506 Z" id="Path"></path>
            <path d="M22.869,77.868 C22.806,78.12 22.68,78.372 22.365,78.372 C22.05,78.372 21.924,78.12 21.924,77.805 C21.924,77.553 22.113,77.427 22.302,77.427 C22.617,77.364 22.743,77.616 22.869,77.868 Z" id="Path"></path>
            <path d="M30.681,72.009 C30.555,72.135 30.429,72.324 30.24,72.324 C29.925,72.324 29.799,72.072 29.862,71.82 C29.862,71.568 30.051,71.505 30.303,71.505 C30.618,71.505 30.618,71.694 30.681,72.009 Z" id="Path"></path>
            <path d="M36.225,8.442 C36.099,8.757 35.973,8.883 35.721,8.82 C35.469,8.757 35.28,8.568 35.406,8.253 C35.469,8.064 35.658,7.938 35.847,7.938 C36.225,8.001 36.225,8.253 36.225,8.442 Z" id="Path"></path>
            <path d="M69.804,8.757 C69.678,9.072 69.489,9.198 69.237,9.135 C68.985,9.072 68.985,8.883 68.985,8.694 C68.985,8.442 69.174,8.316 69.363,8.316 C69.615,8.316 69.804,8.505 69.804,8.757 Z" id="Path"></path>
            <path d="M47.502,73.836 C47.376,73.899 47.25,74.088 47.124,74.151 C46.809,74.214 46.62,74.025 46.62,73.71 C46.62,73.458 46.746,73.332 46.998,73.332 C47.25,73.332 47.439,73.458 47.502,73.836 Z" id="Path"></path>
            <path d="M6.552,62.496 C6.426,62.811 6.3,63 5.985,63 C5.733,63 5.607,62.748 5.67,62.559 C5.67,62.307 5.859,62.055 6.174,62.118 C6.3,62.181 6.426,62.37 6.552,62.496 Z" id="Path"></path>
            <path d="M21.798,4.662 C21.546,4.662 21.42,4.536 21.357,4.347 C21.294,4.032 21.483,3.843 21.735,3.843 C21.987,3.843 22.113,3.969 22.113,4.221 C22.05,4.347 22.05,4.599 21.798,4.662 Z" id="Path"></path>
            <path d="M22.554,14.553 C22.491,14.868 22.428,15.057 22.176,15.12 C21.924,15.183 21.798,15.057 21.735,14.805 C21.672,14.49 21.798,14.238 22.113,14.301 C22.239,14.238 22.428,14.427 22.554,14.553 Z" id="Path"></path>
            <path d="M4.284,21.672 C4.347,21.42 4.41,21.168 4.662,21.168 C4.914,21.105 5.04,21.231 5.103,21.483 C5.166,21.798 5.04,21.987 4.725,21.987 C4.536,21.987 4.41,21.735 4.284,21.672 Z" id="Path"></path>
            <path d="M12.159,27.72 C12.033,27.783 11.907,27.972 11.718,27.972 C11.403,27.972 11.277,27.72 11.277,27.468 C11.277,27.216 11.466,27.09 11.655,27.09 C12.033,27.153 12.222,27.279 12.159,27.72 Z" id="Path"></path>
            <path d="M15.057,22.05 C15.309,22.113 15.435,22.239 15.372,22.491 C15.372,22.743 15.183,22.869 14.931,22.806 C14.742,22.806 14.553,22.617 14.616,22.365 C14.679,22.176 14.805,22.05 15.057,22.05 Z" id="Path"></path>
        </g>
    </g>
</svg>