<svg class="vison" viewBox="0 0 1713.11 335.23">
  <g id="Layer_2" data-name="Layer 2">
    <g id="Layer_1-2" data-name="Layer 1">
      <circle cx="1173.12" cy="167.61" r="167.61" style="fill: #323045"/>
      <polygon points="1676.09 9.15 1577.77 156.97 1442.9 9.29 1411.24 9.61 1410.72 323.63 1447.75 323.63 1447.75 69.5 1680.45 323.63 1712.63 323.63 1713.11 9.21 1676.09 9.15" style="fill: #323045;fill-rule: evenodd"/>
      <polygon points="327.06 9.81 257.48 125.81 32.24 10.23 32 9.81 0 9.81 176.5 334.76 340 43.82 340 323.63 377.02 323.63 377.02 9.81 327.06 9.81" style="fill: #323045"/>
      <path id="s" d="M730.36,292.8q23.83,16.26,39.26,24.42,29.4,15.55,65.45,15.56a131.05,131.05,0,0,0,43-6.77,99.88,99.88,0,0,0,33.83-19.27A84.62,84.62,0,0,0,933.72,277q7.59-17.25,7.59-38.9,0-18.26-6-31.79a79.8,79.8,0,0,0-16.44-24,112.78,112.78,0,0,0-24-18.26c-6-3.46-32.65-11.9-45.79-18.14l76-111.5q-25.44-18.6-40.62-24.91Q861.64,0,828.11,0a107.17,107.17,0,0,0-38.57,6.76,95.51,95.51,0,0,0-30.67,18.6A85.17,85.17,0,0,0,738.64,53.1a81.06,81.06,0,0,0-7.28,34.15q0,36.52,19.29,57.16c5.08,5.43,37.11,23.25,50,32.45" style="fill: #323045;fill-rule: evenodd"/>
    </g>
  </g>
</svg>
