<svg class="mixing-senses" viewBox="0 0 1543.59 173.86">
  <g id="Layer_2" data-name="Layer 2">
    <g id="Layer_1-2" data-name="Layer 1">
      <g id="Artboard-Copy">
        <g id="Group-4-Copy-3">
          <g id="Group-4-Copy-2">
            <polygon id="Path" points="340.55 173.86 366.34 148.38 331.11 112.89 366.34 77.85 340.55 52.16 305.55 87.2 270.2 52.16 244.64 77.85 279.98 112.89 244.64 148.38 270.2 173.86 305.55 138.37 340.55 173.86" style="fill: #7873a2"/>
            <polygon id="Rectangle" points="0 60.85 56.5 84.35 113.01 60.85 113.01 165.16 0 165.16 0 60.85" style="fill: #7873a2;fill-rule: evenodd"/>
            <g id="Group-6">
              <circle id="Oval" cx="178.82" cy="17.39" r="17.39" style="fill: #7873a2"/>
              <rect id="Rectangle-2" data-name="Rectangle" x="165.39" y="60.85" width="34.77" height="104.31" style="fill: #7873a2"/>
            </g>
            <g id="Group-7">
              <circle id="Oval-Copy-2" cx="423.46" cy="17.39" r="17.39" style="fill: #7873a2"/>
              <rect id="Rectangle-Copy" x="410.03" y="60.85" width="34.77" height="104.31" style="fill: #7873a2"/>
            </g>
            <path id="Combined-Shape" d="M999.05,158.54v-.17l-.17.17V54.23H1076v26.3l-42.16,42.65v9.28h40.75v26.08Z" style="fill: #7873a2;fill-rule: evenodd"/>
            <path id="Combined-Shape-Copy" d="M1349.47,158.54v-.17l-.16.17V54.23h77.09v26.3l-42.16,42.65v9.28H1425v26.08Z" style="fill: #7873a2;fill-rule: evenodd"/>
            <path id="Combined-Shape-2" data-name="Combined-Shape" d="M721.5,113a52.14,52.14,0,1,1-12.06-33.37L669.34,113Z" style="fill: #7873a2;fill-rule: evenodd"/>
            <polygon id="N" points="514.61 165.16 552.05 165.16 581.17 165.16 581.17 60.85 552.05 60.85 552.05 118.56 485.55 60.85 485.55 165.16 514.61 165.16" style="fill: #7873a2"/>
            <polygon id="N-Copy" points="1135.29 158.54 1172.74 158.54 1201.86 158.54 1201.86 54.23 1172.74 54.23 1172.74 111.93 1106.24 54.23 1106.24 158.54 1135.29 158.54" style="fill: #7873a2"/>
            <path id="s" d="M927.49,167.23a53.46,53.46,0,0,0,16.65-2.47,39.42,39.42,0,0,0,13.1-7,31.15,31.15,0,0,0,8.45-10.88,33.46,33.46,0,0,0,2.93-14.23A27.07,27.07,0,0,0,966.3,121a29,29,0,0,0-6.37-8.78,42.92,42.92,0,0,0-9.3-6.68q-3.51-1.9-11.15-5.32l22.83-42.09Q952.47,51.3,946.59,49q-8.82-3.47-21.8-3.47A43.67,43.67,0,0,0,909.86,48,37.31,37.31,0,0,0,898,54.81,31.4,31.4,0,0,0,890.14,65a28.39,28.39,0,0,0-2.81,12.49q0,13.36,7.47,20.9a72.93,72.93,0,0,0,10.44,8L881.7,149.18a205.87,205.87,0,0,0,20.44,12.36A55.82,55.82,0,0,0,927.49,167.23Z" style="fill: #7873a2;fill-rule: evenodd"/>
            <path id="s-copy" d="M1277.91,167.23a53.46,53.46,0,0,0,16.65-2.47,39.32,39.32,0,0,0,13.1-7,31.15,31.15,0,0,0,8.45-10.88,33.31,33.31,0,0,0,2.94-14.23,27.07,27.07,0,0,0-2.33-11.62,28.86,28.86,0,0,0-6.37-8.78,42.92,42.92,0,0,0-9.3-6.68q-3.51-1.9-11.14-5.32l22.82-42.09Q1302.89,51.3,1297,49q-8.82-3.47-21.79-3.47A43.69,43.69,0,0,0,1260.28,48a37.42,37.42,0,0,0-11.88,6.8A31.37,31.37,0,0,0,1240.57,65a28.26,28.26,0,0,0-2.82,12.49q0,13.36,7.47,20.9a74.12,74.12,0,0,0,10.44,8l-23.54,42.81a204.64,204.64,0,0,0,20.45,12.36A55.78,55.78,0,0,0,1277.91,167.23Z" style="fill: #7873a2;fill-rule: evenodd"/>
            <path id="s-copy-2" d="M1502.45,167.23a53.46,53.46,0,0,0,16.65-2.47,39.32,39.32,0,0,0,13.1-7,31,31,0,0,0,8.45-10.88,33.31,33.31,0,0,0,2.94-14.23,27.07,27.07,0,0,0-2.33-11.62,29,29,0,0,0-6.36-8.78,43.23,43.23,0,0,0-9.31-6.68q-3.51-1.9-11.14-5.32l22.83-42.09q-9.85-6.81-15.73-9.11-8.82-3.47-21.79-3.47A43.69,43.69,0,0,0,1484.82,48a37.42,37.42,0,0,0-11.88,6.8A31.51,31.51,0,0,0,1465.11,65a28.26,28.26,0,0,0-2.82,12.49q0,13.36,7.47,20.9a74.12,74.12,0,0,0,10.44,8l-23.54,42.81a205.79,205.79,0,0,0,20.45,12.36A55.81,55.81,0,0,0,1502.45,167.23Z" style="fill: #7873a2;fill-rule: evenodd"/>
          </g>
        </g>
      </g>
    </g>
  </g>
</svg>
