<?xml version="1.0" encoding="UTF-8"?>
<svg width="434px" height="79px" viewBox="0 0 434 79" version="1.1" xmlns="http://www.w3.org/2000/svg" xmlns:xlink="http://www.w3.org/1999/xlink">
    <title>Artboard Copy</title>
    <g id="Artboard-Copy" stroke="none" stroke-width="1" fill="none" fill-rule="evenodd">
        <g id="Group-4-Copy-3" transform="translate(31.000000, 19.000000)" fill="#7873A2">
            <g id="Group-4-Copy-2">
                <polygon id="Path" fill-rule="nonzero" points="82.2709589 42 88.5 35.8458867 79.9887671 27.2731261 88.5 18.8078611 82.2709589 12.6 73.8134247 21.0652651 65.2753425 12.6 59.1 18.8078611 67.6380822 27.2731261 59.1 35.8458867 65.2753425 42 73.8134247 33.4272395"></polygon>
                <polygon id="Rectangle" transform="translate(13.650000, 27.300000) rotate(-360.000000) translate(-13.650000, -27.300000) " points="4.655476e-12 14.7 13.65 20.3762411 27.3 14.7 27.3 39.9 6.20730134e-12 39.9"></polygon>
                <g id="Group-6" transform="translate(39.000000, 0.000000)">
                    <circle id="Oval" cx="4.2" cy="4.2" r="4.2"></circle>
                    <rect id="Rectangle" x="0.954545455" y="14.7" width="8.4" height="25.2"></rect>
                </g>
                <g id="Group-7" transform="translate(98.100000, 0.000000)">
                    <circle id="Oval-Copy-2" cx="4.2" cy="4.2" r="4.2"></circle>
                    <rect id="Rectangle-Copy" x="0.954545455" y="14.7" width="8.4" height="25.2"></rect>
                </g>
                <path d="M241.350448,38.3 L241.350363,38.26 L241.310363,38.3 L241.310363,13.1 L259.934455,13.1 L259.934455,19.4547331 L249.750363,29.759 L249.750363,31.999 L259.594818,31.9994886 L259.594818,38.3 L241.350448,38.3 Z" id="Combined-Shape"></path>
                <path d="M326.005629,38.3 L326.005545,38.26 L325.965545,38.3 L325.965545,13.1 L344.589637,13.1 L344.589637,19.4547331 L334.405545,29.759 L334.405545,31.999 L344.25,31.9994886 L344.25,38.3 L326.005629,38.3 Z" id="Combined-Shape-Copy"></path>
                <path d="M174.3,27.3 C174.3,34.2587878 168.658788,39.9 161.7,39.9 C154.741212,39.9 149.1,34.2587878 149.1,27.3 C149.1,20.3412122 154.741212,14.7 161.7,14.7 C165.593365,14.7 169.074292,16.4658567 171.385558,19.2403473 L161.7,27.3 Z" id="Combined-Shape"></path>
                <polygon id="N" fill-rule="nonzero" points="124.318973 39.9 133.364551 39.9 140.4 39.9 140.4 14.7 133.364551 14.7 133.364551 28.6407913 117.3 14.7 117.3 39.9"></polygon>
                <polygon id="N-Copy" fill-rule="nonzero" points="274.263791 38.3 283.309369 38.3 290.344818 38.3 290.344818 13.1 283.309369 13.1 283.309369 27.0407913 267.244818 13.1 267.244818 38.3"></polygon>
                <path d="M224.061972,40.4 C225.521127,40.4 226.861972,40.200813 228.084507,39.802439 C229.307042,39.404065 230.361972,38.8363821 231.249296,38.0993902 C232.13662,37.3623984 232.816901,36.4859756 233.290141,35.470122 C233.76338,34.4542683 234,33.3089431 234,32.0341463 C234,30.9585366 233.812676,30.0223577 233.438028,29.2256098 C233.06338,28.4288618 232.550704,27.721748 231.9,27.1042683 C231.249296,26.4867886 230.5,25.9489837 229.652113,25.4908537 C229.086854,25.1854336 228.189671,24.7571816 226.960563,24.2060976 L232.475031,14.037791 C230.88886,12.9421363 229.622535,12.2084011 228.676056,11.8365854 C227.256338,11.2788618 225.501408,11 223.411268,11 C222.109859,11 220.907042,11.199187 219.802817,11.597561 C218.698592,11.995935 217.742254,12.5436992 216.933803,13.2408537 C216.125352,13.9380081 215.494366,14.7546748 215.040845,15.6908537 C214.587324,16.6270325 214.360563,17.6329268 214.360563,18.7085366 C214.360563,20.8597561 214.961972,22.5428862 216.164789,23.7579268 C216.639848,24.2378138 217.480469,24.8842387 218.686652,25.6972014 L213,36.0378049 C215.070423,37.4188347 216.716901,38.4147696 217.939437,39.0256098 C219.773239,39.9418699 221.814085,40.4 224.061972,40.4 Z" id="s"></path>
                <path d="M308.717154,40.4 C310.176308,40.4 311.517154,40.200813 312.739689,39.802439 C313.962224,39.404065 315.017154,38.8363821 315.904477,38.0993902 C316.791801,37.3623984 317.472083,36.4859756 317.945323,35.470122 C318.418562,34.4542683 318.655182,33.3089431 318.655182,32.0341463 C318.655182,30.9585366 318.467858,30.0223577 318.09321,29.2256098 C317.718562,28.4288618 317.205886,27.721748 316.555182,27.1042683 C315.904477,26.4867886 315.155182,25.9489837 314.307294,25.4908537 C313.742036,25.1854336 312.844853,24.7571816 311.615745,24.2060976 L317.130212,14.037791 C315.544042,12.9421363 314.277717,12.2084011 313.331238,11.8365854 C311.91152,11.2788618 310.15659,11 308.066449,11 C306.765041,11 305.562224,11.199187 304.457999,11.597561 C303.353773,11.995935 302.397435,12.5436992 301.588985,13.2408537 C300.780534,13.9380081 300.149548,14.7546748 299.696027,15.6908537 C299.242506,16.6270325 299.015745,17.6329268 299.015745,18.7085366 C299.015745,20.8597561 299.617154,22.5428862 300.81997,23.7579268 C301.29503,24.2378138 302.135651,24.8842387 303.341834,25.6972014 L297.655182,36.0378049 C299.725604,37.4188347 301.372083,38.4147696 302.594618,39.0256098 C304.428421,39.9418699 306.469266,40.4 308.717154,40.4 Z" id="s-copy"></path>
                <path d="M362.961972,40.4 C364.421127,40.4 365.761972,40.200813 366.984507,39.802439 C368.207042,39.404065 369.261972,38.8363821 370.149296,38.0993902 C371.03662,37.3623984 371.716901,36.4859756 372.190141,35.470122 C372.66338,34.4542683 372.9,33.3089431 372.9,32.0341463 C372.9,30.9585366 372.712676,30.0223577 372.338028,29.2256098 C371.96338,28.4288618 371.450704,27.721748 370.8,27.1042683 C370.149296,26.4867886 369.4,25.9489837 368.552113,25.4908537 C367.986854,25.1854336 367.089671,24.7571816 365.860563,24.2060976 L371.375031,14.037791 C369.78886,12.9421363 368.522535,12.2084011 367.576056,11.8365854 C366.156338,11.2788618 364.401408,11 362.311268,11 C361.009859,11 359.807042,11.199187 358.702817,11.597561 C357.598592,11.995935 356.642254,12.5436992 355.833803,13.2408537 C355.025352,13.9380081 354.394366,14.7546748 353.940845,15.6908537 C353.487324,16.6270325 353.260563,17.6329268 353.260563,18.7085366 C353.260563,20.8597561 353.861972,22.5428862 355.064789,23.7579268 C355.539848,24.2378138 356.380469,24.8842387 357.586652,25.6972014 L351.9,36.0378049 C353.970423,37.4188347 355.616901,38.4147696 356.839437,39.0256098 C358.673239,39.9418699 360.714085,40.4 362.961972,40.4 Z" id="s-copy-2"></path>
            </g>
        </g>
    </g>
</svg>