<svg class="icon" width="48px" height="48px" viewBox="0 0 48 48" version="1.1" xmlns="http://www.w3.org/2000/svg" xmlns:xlink="http://www.w3.org/1999/xlink">
    <g stroke="none" stroke-width="1" fill="none" fill-rule="evenodd">
        <path d="M15.9,21 C15.9,25.1140549 18.6008094,28.5368485 22.1114666,29.0371787 L22.3306874,29.0583493 C22.5146416,29.0717845 22.7623302,29.0834654 23.0024749,29.0910099 L23.5,29.1 L23.5,30.5 L25.499,30.5 L25.5,29.1 L25.9975251,29.0910099 C26.2376698,29.0834654 26.4853584,29.0717845 26.6693126,29.0583493 L26.6693126,29.0583493 L26.8885334,29.0371787 C30.3991906,28.5368485 33.1,25.1140549 33.1,21 L33.1,21 L34.9,21 L34.8963295,21.2862339 C34.7718011,26.137086 31.4922378,30.1992583 27.1424987,30.8191724 C26.8798909,30.8565986 26.3375302,30.884702 25.8719498,30.8953442 L25.8719498,30.8953442 L25.5,30.899 L25.5,39 L31,39 L31,41 L18,41 L18,39 L23.5,39 L23.5,30.9 L23.1280502,30.8953442 C22.6624698,30.884702 22.1201091,30.8565986 21.8575013,30.8191724 C17.5077622,30.1992583 14.2281989,26.137086 14.1036705,21.2862339 L14.1,21 L15.9,21 Z M24.5,6.1 C28.0346224,6.1 30.9,8.9653776 30.9,12.5 L30.9,12.5 L30.9,19.5 C30.9,23.0346224 28.0346224,25.9 24.5,25.9 C20.9653776,25.9 18.1,23.0346224 18.1,19.5 L18.1,19.5 L18.1,12.5 C18.1,8.9653776 20.9653776,6.1 24.5,6.1 Z M24.5,7.9 C21.9594902,7.9 19.9,9.95949015 19.9,12.5 L19.9,12.5 L19.9,19.5 C19.9,22.0405098 21.9594902,24.1 24.5,24.1 C27.0405098,24.1 29.1,22.0405098 29.1,19.5 L29.1,19.5 L29.1,12.5 C29.1,9.95949015 27.0405098,7.9 24.5,7.9 Z" id="Combined-Shape" fill="currentColor" fill-rule="nonzero"></path>
    </g>
</svg>
