<svg class="icon" width="48px" height="48px" viewBox="0 0 48 48" version="1.1" xmlns="http://www.w3.org/2000/svg" xmlns:xlink="http://www.w3.org/1999/xlink">
  <g>
    <path d="M27.5,9 L27.499,9.01 L37,9.01085634 L38,10.0108563 L38,17.0108563 L37,18.0108563 L27.499,18.01 L27.4998159,34.4566437 C27.4999386,34.4710813 27.5,34.4855335 27.5,34.5 L27.499,34.544 L27.5,34.7579224 C27.3628637,37.327734 25.2920767,39.3854722 22.7168896,39.4953805 L22.5,39.5 L19.5,39.5 C16.7385763,39.5 14.5,37.2614237 14.5,34.5 C14.5,31.8112453 16.6223067,29.6181819 19.2831104,29.5046195 L19.5,29.5 L22.5,29.5 C23.6256932,29.5 24.6645005,29.8720025 25.5001943,30.4997798 L25.5,9 L27.5,9 Z M22.5,31.5 L19.5,31.5 C17.8431458,31.5 16.5,32.8431458 16.5,34.5 C16.5,36.0976809 17.74892,37.4036609 19.3237272,37.4949073 L19.5,37.5 L22.5,37.5 C24.1468249,37.5 25.4837277,36.1730659 25.4998526,34.5300534 L25.499,34.47 L25.4949073,34.3237272 C25.4070404,32.8072462 24.1927538,31.5929596 22.6762728,31.5050927 L22.5,31.5 Z M36,11.01 L27.499,11.01 L27.499,16.01 L36,16.01 L36,11.01 Z" id="note" fill="currentColor" fill-rule="nonzero"></path>
  </g>
</svg>
