<?xml version="1.0" encoding="UTF-8"?>
<svg width="48px" height="48px" viewBox="0 0 48 48" version="1.1" xmlns="http://www.w3.org/2000/svg" xmlns:xlink="http://www.w3.org/1999/xlink">
    <title>icons/tracking-off</title>
    <g id="icons/tracking-off" stroke="none" stroke-width="1" fill="none" fill-rule="evenodd">
        <path d="M24.4020122,17 C31.5359659,17 38.015515,20.2320078 43.8030965,26.6270328 L42.4594873,28 L43.8030965,29.3729672 C38.015515,35.7679922 31.5359659,39 24.4020122,39 C17.2676773,39 10.7878169,35.7676467 5,29.3719419 L6.34389076,28 L5,26.6280581 C10.7878169,20.2323533 17.2676773,17 24.4020122,17 Z M24.4020122,19.1010392 C17.9339957,19.1010392 12.0208555,22.0445366 6.62528292,28.0000554 C12.0215108,33.9557895 17.934354,36.8989608 24.4020122,36.8989608 C30.8701395,36.8989608 36.7833715,33.9553625 42.1790187,27.9996386 C36.7827043,22.0443054 30.8697747,19.1010392 24.4020122,19.1010392 Z" id="Combined-Shape" fill="#000000" fill-rule="nonzero"></path>
        <path d="M31,22.3124884 L29.6875116,21 L24,26.6875116 L18.3124884,21 L17,22.3124884 L22.6875116,28 L17,33.6875116 L18.3124884,35 L24,29.3124884 L29.6875116,35 L31,33.6875116 L25.3124884,28 L31,22.3124884 Z M25.3124884,28 L24,29.3124884 L22.6875116,28 L24,26.6875116 L25.3124884,28 Z" id="x" fill="#000000"></path>
    </g>
</svg>