<svg id="Layer_1" data-name="Layer 1" xmlns="http://www.w3.org/2000/svg" width="215.49" height="83.23" viewBox="0 0 215.49 83.23">
  <g>
    <path d="M55.64,33.29v.62q0,12.11,0,24.2c0,.55-.14.71-.68.68-.84,0-1.68,0-2.58,0V54.4l-.63.69a12.79,12.79,0,0,1-9.7,4.34,13.29,13.29,0,0,1-13-11.58A13.42,13.42,0,0,1,36,34.11a12.49,12.49,0,0,1,15.78,3l.57.68V33.29Zm-3,12.86A10.05,10.05,0,0,0,42.5,35.75a10.33,10.33,0,0,0-.07,20.66A10,10,0,0,0,52.59,46.15Z"/>
    <path d="M83.76,58.75H80.43V36.06H76V33.24H80.4V23.81h3.33v9.4H97.9V36H83.76Z"/>
    <path d="M74.74,33.46c-.54.88-1,1.7-1.57,2.51a.41.41,0,0,1-.38.15,3.88,3.88,0,0,0-3.23.05A6.13,6.13,0,0,0,66.69,39a11.26,11.26,0,0,0-1.33,5.1c-.1,4.65-.14,9.3-.21,14v.72H61.82V33.29h3.32v3.44l.13,0c.21-.28.42-.55.64-.82A8.8,8.8,0,0,1,70,32.87,5.58,5.58,0,0,1,74.74,33.46Z"/>
    <path d="M94.78,58.74l-.5-.59,27-21.82,4.94,16,23.45-19c.3.44.34.74-.13,1.12q-12.42,10-24.82,20.07l-1.35,1.08c-1.65-5.36-3.29-10.65-4.94-16Z"/>
    <path d="M124.32,58.62c-.36-.56-.2-.86.22-1.2q11.38-9.16,22.74-18.37l3.35-2.72c1.65,5.34,3.27,10.61,4.93,16l23.38-18.92a.71.71,0,0,1-.18,1.15q-9.44,7.6-18.84,15.24L153,55.34l-.33.23-4.92-15.93Z"/>
    <path d="M179.94,36.32l6.6,21.34L183,58.75c-2-6.37-3.93-12.7-5.91-19.12L153.71,58.55c-.26-.43-.37-.72.08-1.08q12.32-9.93,24.6-19.89Z"/>
    <path d="M120.25,33.36a.74.74,0,0,1-.19,1.17Q106.77,45.26,93.5,56l-.58.45-.48-.59Z"/>
    <path d="M64.53,30.52c.43.14.49.37.3.75a2.2,2.2,0,0,1-2,1.43,2,2,0,0,1-1.92-1.39,4.38,4.38,0,0,1,.17-4.17,1.91,1.91,0,0,1,3.41-.08,3.53,3.53,0,0,1,.56,2.4H61.2a2.3,2.3,0,0,0,1.17,2.42C63.16,32.17,63.79,31.77,64.53,30.52Zm-.08-1.8a1.62,1.62,0,1,0-3.19,0Z"/>
    <path d="M94,42.69A2.3,2.3,0,0,0,95.16,45c.76.29,1.32,0,2.17-1.3.45.11.47.38.28.75a2.17,2.17,0,0,1-1.94,1.38,2,2,0,0,1-1.88-1.36,4.34,4.34,0,0,1,.12-4,1.88,1.88,0,0,1,3.41-.15,4.09,4.09,0,0,1,.62,2.31Zm.06-.73h3.18c-.2-1.16-.84-1.85-1.67-1.82A1.78,1.78,0,0,0,94.09,42Z"/>
    <path d="M56.16,32.49h-.57V23.82l.56,0V27.2c.29-.31.47-.55.7-.75a1.35,1.35,0,0,1,2.13.27,2,2,0,0,1,.39,1c0,1.58,0,3.17,0,4.8l-.48,0v-.61c0-1.18,0-2.36,0-3.54,0-.88-.41-1.46-1-1.55a1.46,1.46,0,0,0-1.53,1.23,7.83,7.83,0,0,0-.2,1.75C56.14,30.69,56.16,31.58,56.16,32.49Z"/>
    <path d="M90.38,41.14a.73.73,0,0,1-.09-.08,1.68,1.68,0,0,0-1.79-.91A1.94,1.94,0,0,0,87,41.7a3.13,3.13,0,0,0,.23,2.4,1.63,1.63,0,0,0,2.88.29c.08-.09.15-.19.23-.29.47.21.46.48.19.84a2.16,2.16,0,0,1-3.57,0,4.16,4.16,0,0,1,.06-4.6,2.13,2.13,0,0,1,3.55.06C90.84,40.73,90.82,41,90.38,41.14Z"/>
    <path d="M53.81,32.49H53.2V27l-.75-.09v-.61l.74-.08V23.92l.59,0v2.3l.9.07,0,.62-.9.08Z"/>
    <path d="M91.86,37.19c.31-.07.54-.11.54.29,0,2.68,0,5.37,0,8.05a1.17,1.17,0,0,1,0,.15l-.48,0Z"/>
    <path d="M85.33,45.69h-.51V39.57h.51Z"/>
    <path d="M85.72,37.65c-.28.28-.44.59-.64.62-.39,0-.52-.32-.46-.62s.28-.43.43-.65Z"/>
  </g>
</svg>
